# xmcd
#
# Track frame offsets:
#	150
#	13540
#	30832
#	46894
#	62899
#	66455
#	78929
#	94944
#	106683
#	124548
#	145170
#	155811
#
# Disc length: 2263 seconds
#
# Revision: 1
# Processed by: cddbd v1.5.2PL0 Copyright (c) Steve Scherf et al.
# Submitted via: audiograbber 1.83.01
#
DISCID=9508d50c
DTITLE=Glen Campbell - Adiós
DYEAR=2017
DGENRE=Country
TTITLE0=Everybody's Talkin'
TTITLE1=Just Like Always
TTITLE2=Funny How Time Slips Away (feat. Willie Nelson)
TTITLE3=Arkansas Farmboy
TTITLE4=Am I All Alone (Or Is It Only Me) (Intro) (feat. Roger Miller)
TTITLE5=Am I All Alone (Or Is It Only Me) (feat. Vince Gill)
TTITLE6=It Won't Bring Her Back
TTITLE7=Don't Think Twice, It's All Right
TTITLE8=She Thinks I Still Care
TTITLE9=Postcard From Paris
TTITLE10=A Thing Called Love
TTITLE11=Adiós
EXTD=
EXTT0=
EXTT1=
EXTT2=
EXTT3=
EXTT4=
EXTT5=
EXTT6=
EXTT7=
EXTT8=
EXTT9=
EXTT10=
EXTT11=
PLAYORDER=
